<svg id="Layer_1" data-name="Layer 1" xmlns="http://www.w3.org/2000/svg" viewBox="0 0 209 69.67">
  <defs>
    <style>
      .cls-1 {
        fill: #00b28a;
      }

      .cls-2 {
        fill: #a3d2e2;
      }

      .cls-3 {
        fill: #90c73e;
      }

      .cls-4 {
        fill: #3f8fcd;
      }

      .cls-5 {
        fill: #231f20;
      }
    </style>
  </defs>
  <title>logo-emd-access</title>
  <g>
    <g>
      <path class="cls-1" d="M29,23h-24A4.58,4.58,0,0,0,.5,27.54V42.46A4.58,4.58,0,0,0,5.09,47H15.9L34.6,28.49Z" transform="translate(-0.5 -0.17)"/>
      <path class="cls-2" d="M47.81,28.43V4.71A4.58,4.58,0,0,0,43.22.17H28.14a4.58,4.58,0,0,0-4.59,4.54v10.7l18.7,18.52Z" transform="translate(-0.5 -0.17)"/>
      <path class="cls-3" d="M66.27,23H55.47L36.76,41.51,42.32,47h24a4.58,4.58,0,0,0,4.59-4.54V27.54A4.58,4.58,0,0,0,66.27,23" transform="translate(-0.5 -0.17)"/>
      <path class="cls-4" d="M29.11,36.07l-5.55,5.5V65.29a4.58,4.58,0,0,0,4.59,4.54H43.22a4.58,4.58,0,0,0,4.59-4.54V54.59Z" transform="translate(-0.5 -0.17)"/>
    </g>
    <g>
      <path class="cls-5" d="M116,31.66a15.22,15.22,0,0,1-29.23-5.86A15.15,15.15,0,0,1,102,10.32,15.77,15.77,0,0,1,113,15a15.07,15.07,0,0,1,4.11,10.86l-.22,2.34H93.18A9,9,0,0,0,102,35.13,8.18,8.18,0,0,0,109,31.66Zm-5.1-8.58a9.34,9.34,0,0,0-9.21-6.84,9.05,9.05,0,0,0-8.55,6.84Z" transform="translate(-0.5 -0.17)"/>
      <polygon class="cls-5" points="164.74 33.82 169.02 33.82 169.02 40.01 153.06 40.01 153.06 33.82 157.28 33.82 157.28 11.29 146.48 40.01 141.22 40.01 130.08 11.29 130.08 33.82 134.63 33.82 134.63 40.01 118.35 40.01 118.35 33.82 122.63 33.82 122.63 7.44 118.35 7.44 118.35 1.25 133.04 1.25 143.68 28.61 154.32 1.25 169.02 1.25 169.02 7.44 164.74 7.44 164.74 33.82"/>
      <path class="cls-5" d="M171.72,34H176V7.6h-4.28V1.41h18.59c5.48,0,9.71,1.14,13.66,5.1A20.11,20.11,0,0,1,209.5,20.9a20.11,20.11,0,0,1-5,13.52c-3.89,4.34-8.5,5.75-14.26,5.75H171.72Zm11.74-.49h5.87c3.73,0,7-.49,9.54-3.42A14.38,14.38,0,0,0,202,20.9c0-3.47-1-7.28-3.4-9.83C196,8.36,193,8,189.43,8h-6Z" transform="translate(-0.5 -0.17)"/>
      <path class="cls-5" d="M104.22,64.21a8.65,8.65,0,0,1-7.68,4.37,9.52,9.52,0,0,1-9.76-9.74,9.16,9.16,0,0,1,1.58-5.33,9.38,9.38,0,0,1,8.15-4.41,8.58,8.58,0,0,1,7.72,4.41V49.43h5.49v2.2h-3.12V65.89h3.12v2.2h-5.49ZM89.14,58.88a7.56,7.56,0,0,0,15.11-.07,7.45,7.45,0,0,0-7.5-7.39,7.56,7.56,0,0,0-7.61,7.46" transform="translate(-0.5 -0.17)"/>
      <path class="cls-5" d="M130.74,55h-2.23a7.66,7.66,0,0,0-6.46-3.59,7.39,7.39,0,1,0,.18,14.79,7.07,7.07,0,0,0,6.46-4h2.66A9.84,9.84,0,1,1,115,52.09a9.63,9.63,0,0,1,6.89-3,8.61,8.61,0,0,1,6.6,3V49.43h2.23Z" transform="translate(-0.5 -0.17)"/>
      <path class="cls-5" d="M152.64,55h-2.23A7.66,7.66,0,0,0,144,51.46a7.39,7.39,0,1,0,.18,14.79,7.06,7.06,0,0,0,6.46-4h2.66a9.84,9.84,0,1,1-16.33-10.16,9.63,9.63,0,0,1,6.89-3,8.61,8.61,0,0,1,6.6,3V49.43h2.23Z" transform="translate(-0.5 -0.17)"/>
      <path class="cls-5" d="M174.82,62.86a9.83,9.83,0,0,1-9,5.72,9.74,9.74,0,1,1,9.76-9.67v.71H158.38a7.52,7.52,0,0,0,13.93,3.24Zm-1.44-5.15a7.66,7.66,0,0,0-7.72-6.47,7.55,7.55,0,0,0-7.29,6.47Z" transform="translate(-0.5 -0.17)"/>
      <path class="cls-5" d="M189.43,54.16c-.07-1.88-1.9-3.13-3.88-3.13s-3.7,1.14-3.7,3.16c0,2.34,2.26,2.91,4.16,3.31a12.78,12.78,0,0,1,4.27,1.39A4.58,4.58,0,0,1,192.63,63a5.81,5.81,0,0,1-.82,2.88c-.9,1.71-3.3,2.74-5.49,2.74a5.67,5.67,0,0,1-5.24-2.74v2.24h-1.94V62.76h1.94a4.59,4.59,0,0,0,4.81,3.95c2.08,0,4.09-1.39,4.09-3.55,0-2.56-2.23-3-4.31-3.45a13.42,13.42,0,0,1-4.24-1.39,4.61,4.61,0,0,1-2.22-3.94,4.85,4.85,0,0,1,1-3.2,6.52,6.52,0,0,1,5-2.06,4.8,4.8,0,0,1,4.27,2.06V49.43h1.94v4.73Z" transform="translate(-0.5 -0.17)"/>
      <path class="cls-5" d="M206.31,54.16c-.07-1.88-1.9-3.13-3.88-3.13s-3.7,1.14-3.7,3.16c0,2.34,2.26,2.91,4.16,3.31a12.79,12.79,0,0,1,4.27,1.39A4.58,4.58,0,0,1,209.5,63a5.8,5.8,0,0,1-.82,2.88c-.9,1.71-3.3,2.74-5.49,2.74a5.67,5.67,0,0,1-5.24-2.74v2.24H196V62.76h1.94a4.59,4.59,0,0,0,4.81,3.95c2.08,0,4.09-1.39,4.09-3.55,0-2.56-2.22-3-4.31-3.45a13.41,13.41,0,0,1-4.24-1.39,4.61,4.61,0,0,1-2.23-3.94,4.86,4.86,0,0,1,1-3.2,6.52,6.52,0,0,1,5-2.06,4.8,4.8,0,0,1,4.27,2.06V49.43h1.94v4.73Z" transform="translate(-0.5 -0.17)"/>
    </g>
  </g>
</svg>
